Coordinates
version=1
nRows=14
nColumns=46
inDegrees=yes

Units are S.I. units (second, meters, Newtons, ...)
Angles are in degrees.

endheader
time	pelvis_tilt	pelvis_list	pelvis_rotation	pelvis_tx	pelvis_ty	pelvis_tz	bb_angle	bb_tx	bb_ty	bb_tz	hip_flexion_r	hip_adduction_r	hip_rotation_r	knee_angle_r	knee_angle_r_beta	ankle_angle_r	subtalar_angle_r	mtp_angle_r	crank_angle_r	hip_flexion_l	hip_adduction_l	hip_rotation_l	knee_angle_l	knee_angle_l_beta	ankle_angle_l	subtalar_angle_l	mtp_angle_l	crank_angle_l	lumbar_extension	lumbar_bending	lumbar_rotation	arm_flex_r	arm_add_r	arm_rot_r	elbow_flex_r	pro_sup_r	wrist_flex_r	wrist_dev_r	arm_flex_l	arm_add_l	arm_rot_l	elbow_flex_l	pro_sup_l	wrist_flex_l	wrist_dev_l
      7.50000000	    -19.63448945	      3.75618313	      7.74967927	      0.36726313	      1.13231762	     -0.28263496	      0.00000000	      0.50000000	      0.00000000	      0.25000000	     26.21556354	    -13.75876465	    -12.52034969	     32.99771957	      0.57591885	    -31.58056244	     -4.43472324	      0.00000000	      0.00000000	     79.58884172	      4.17757858	      2.24784258	    110.50149335	      1.92861489	      2.15637747	     -5.17874248	      0.00000000	      0.00000000	    -59.98167730	     -1.67901667	     -9.86316431	     49.54489297	    -16.52151021	     19.98931872	     64.96671229	     49.64326380	      0.00000000	      0.00000000	     51.05627471	    -20.99273690	     28.12786680	     73.11114369	     50.65278649	      0.00000000	      0.00000000
      7.50500000	    -19.60140352	      3.67714305	      7.79899910	      0.36661679	      1.13431989	     -0.28315099	      0.00000000	      0.50000000	      0.00000000	      0.25000000	     26.64639113	    -13.68324170	    -11.95782902	     34.33218244	      0.59920962	    -33.19688822	     -6.09860146	      0.00000000	      0.00000000	     79.28409890	      4.47951808	      2.39487048	    109.19353685	      1.90578674	      3.36527641	     -4.92879905	      0.00000000	      0.00000000	    -60.43068994	     -1.68947237	    -10.04277943	     49.88156356	    -16.37215631	     19.86088944	     64.83905872	     49.61642204	      0.00000000	      0.00000000	     51.21575352	    -21.11922466	     27.94616395	     73.75574595	     50.73376200	      0.00000000	      0.00000000
      7.51000000	    -19.61185778	      3.42222253	      7.73927083	      0.36609418	      1.13590665	     -0.28332084	      0.00000000	      0.50000000	      0.00000000	      0.25000000	     27.25025085	    -13.33681316	    -11.26538306	     35.87179085	      0.62608086	    -34.57964649	     -7.59497073	      0.00000000	      0.00000000	     78.90126463	      4.56268144	      2.68781169	    107.83186048	      1.88202100	      4.69379738	     -4.80398375	      0.00000000	      0.00000000	    -60.80892288	     -1.59223970	    -10.06596279	     50.06781653	    -15.96928223	     19.26416563	     65.17308982	     49.29587016	      0.00000000	      0.00000000	     50.97369301	    -21.17998016	     27.12360152	     74.71519129	     50.50257388	      0.00000000	      0.00000000
      7.51500000	    -19.70402459	      3.15428447	      7.68821431	      0.36549096	      1.13727425	     -0.28361763	      0.00000000	      0.50000000	      0.00000000	      0.25000000	     28.02434012	    -12.98151619	    -10.41502618	     37.60855908	      0.65639318	    -35.40806186	     -8.45685098	      0.00000000	      0.00000000	     78.44235599	      4.69998528	      2.98733454	    106.26238327	      1.85462846	      6.06525974	     -5.00077921	      0.00000000	      0.00000000	    -61.05597353	     -1.48600215	     -9.98659856	     50.28003048	    -15.78055504	     18.77926892	     65.54092464	     49.12620133	      0.00000000	      0.00000000	     50.86474492	    -21.05911702	     26.43638224	     75.29390050	     50.37154598	      0.00000000	      0.00000000
      7.52000000	    -19.67231868	      3.05718383	      7.55712318	      0.36496447	      1.13862131	     -0.28358422	      0.00000000	      0.50000000	      0.00000000	      0.25000000	     28.81961456	    -12.70339781	     -9.50550845	     39.62408898	      0.69157082	    -36.43512649	    -10.23646885	      0.00000000	      0.00000000	     77.68440334	      4.69045338	      3.02974233	    104.49313158	      1.82374919	      7.38708430	     -5.03185723	      0.00000000	      0.00000000	    -61.50289850	     -1.53663841	    -10.11310169	     50.37546486	    -15.49787071	     18.38619032	     65.86465581	     48.70665866	      0.00000000	      0.00000000	     50.66126768	    -21.22168391	     25.78126932	     76.32051212	     50.03935643	      0.00000000	      0.00000000
      7.52500000	    -19.63487718	      2.77316829	      7.42048870	      0.36419015	      1.13961546	     -0.28371320	      0.00000000	      0.50000000	      0.00000000	      0.25000000	     29.65060186	    -12.19321715	     -8.46515114	     41.78038918	      0.72920535	    -36.68106118	    -11.31794637	      0.00000000	      0.00000000	     76.85727089	      4.70182133	      3.38101995	    102.64992207	      1.79157912	      8.56849420	     -5.09011542	      0.00000000	      0.00000000	    -61.76117391	     -1.36371290	    -11.03025477	     52.21626175	    -14.51749720	     20.59003946	     63.68417505	     48.49761122	      0.00000000	      0.00000000	     49.74280653	    -23.57636543	     25.73540756	     78.87297834	     50.25296318	      0.00000000	      0.00000000
      7.53000000	    -19.58655331	      2.63644464	      7.28787658	      0.36362702	      1.14054711	     -0.28397211	      0.00000000	      0.50000000	      0.00000000	      0.25000000	     30.50892482	    -11.86103953	     -7.47199091	     44.06749759	      0.76912293	    -36.77247947	    -12.33309570	      0.00000000	      0.00000000	     75.68610904	      5.19355121	      3.94018282	    100.52799596	      1.75454452	      9.91622055	     -5.61208772	      0.00000000	      0.00000000	    -62.07912539	     -1.37582161	    -10.94831354	     52.47202001	    -14.56216982	     20.53217819	     63.78825697	     48.52168031	      0.00000000	      0.00000000	     49.83696403	    -23.64541617	     25.63716706	     79.14485193	     50.28981148	      0.00000000	      0.00000000
      7.53500000	    -19.74345328	      2.56607254	      7.04025518	      0.36309776	      1.14104738	     -0.28409626	      0.00000000	      0.50000000	      0.00000000	      0.25000000	     31.69469325	    -11.53434039	     -6.32257377	     46.51141699	      0.81177737	    -36.83079908	    -13.27425736	      0.00000000	      0.00000000	     74.56755579	      5.69326252	      4.42129942	     98.18290815	      1.71361502	     10.97979466	     -6.75092451	      0.00000000	      0.00000000	    -62.24559819	     -1.48565650	    -11.13124576	     52.60913576	    -14.41291408	     20.57411453	     64.20106465	     48.68683425	      0.00000000	      0.00000000	     49.45643033	    -24.21468126	     25.24617911	     80.40858690	     50.48164622	      0.00000000	      0.00000000
      7.54000000	    -19.70096186	      2.30508901	      6.89458366	      0.36265171	      1.14163575	     -0.28426091	      0.00000000	      0.50000000	      0.00000000	      0.25000000	     32.59055709	    -11.02719855	     -5.44523386	     48.90523482	      0.85355737	    -36.74716296	    -13.98956189	      0.00000000	      0.00000000	     73.25074327	      5.96404021	      5.01100652	     95.81454244	      1.67227924	     11.96177094	     -7.49776268	      0.00000000	      0.00000000	    -62.45498774	     -1.37889073	    -10.88631975	     52.92870318	    -14.43806145	     20.54591229	     64.27306481	     48.70163370	      0.00000000	      0.00000000	     49.50390742	    -24.25410884	     25.10668118	     80.57417144	     50.49570074	      0.00000000	      0.00000000
      7.54500000	    -19.74895243	      2.18215551	      6.74645415	      0.36221633	      1.14229293	     -0.28389132	      0.00000000	      0.50000000	      0.00000000	      0.25000000	     33.60283699	    -10.58075590	     -4.45970002	     51.33550392	      0.89597357	    -36.42893628	    -14.89703731	      0.00000000	      0.00000000	     72.13263654	      5.64523669	      4.83474946	     93.30716145	      1.62851718	     12.20244649	     -8.10119630	      0.00000000	      0.00000000	    -62.66900073	     -1.41804121	    -10.82032083	     53.09552093	    -14.42278370	     20.59421837	     64.39589005	     48.73727064	      0.00000000	      0.00000000	     49.53530660	    -24.37799591	     24.90818709	     80.85642559	     50.52361732	      0.00000000	      0.00000000
      7.55000000	    -19.90440156	      2.01634829	      6.57271333	      0.36191728	      1.14286244	     -0.28293961	      0.00000000	      0.50000000	      0.00000000	      0.25000000	     34.72312656	     -9.99912390	     -3.46404086	     53.72786048	      0.93772807	    -36.14554739	    -15.67511147	      0.00000000	      0.00000000	     71.34020813	      4.33979307	      3.76732262	     90.88032360	      1.58616087	     11.86426777	     -8.05020049	      0.00000000	      0.00000000	    -62.74101324	     -1.52849659	    -10.75934194	     53.13179528	    -14.33150870	     20.68238985	     64.56435460	     48.79207271	      0.00000000	      0.00000000	     49.50643625	    -24.65050540	     24.69258721	     81.32439273	     50.58206836	      0.00000000	      0.00000000
      7.55500000	    -19.83678685	      1.69556356	      6.30913840	      0.36192344	      1.14280917	     -0.28291388	      0.00000000	      0.50000000	      0.00000000	      0.25000000	     35.63203337	     -9.38933743	     -2.77736587	     56.20240658	      0.98091704	    -35.61443497	    -16.33775332	      0.00000000	      0.00000000	     70.05907411	      4.19854613	      4.12752245	     88.53717377	      1.54526519	     11.96135755	     -8.44124016	      0.00000000	      0.00000000	    -62.86047475	     -1.42720190	    -10.39114231	     53.31558948	    -14.34080490	     20.69375973	     64.64485195	     48.81320526	      0.00000000	      0.00000000	     49.28749632	    -24.74655004	     24.57047822	     81.58664168	     50.61696072	      0.00000000	      0.00000000
      7.56000000	    -19.80244540	      1.47493962	      5.96836634	      0.36201069	      1.14262218	     -0.28285083	      0.00000000	      0.50000000	      0.00000000	      0.25000000	     36.62152400	     -8.86992323	     -2.07244938	     58.72405776	      1.02492816	    -34.95959441	    -16.91738244	      0.00000000	      0.00000000	     68.74156313	      4.04803719	      4.38403099	     86.12267197	      1.50312419	     11.89261211	     -9.09053362	      0.00000000	      0.00000000	    -62.93867342	     -1.47346013	    -10.08982137	     53.47421362	    -14.36333643	     20.74519198	     64.72784466	     48.83848775	      0.00000000	      0.00000000	     49.05459500	    -24.79825528	     24.42190344	     81.86014415	     50.65080259	      0.00000000	      0.00000000
      7.56500000	    -19.98145494	      1.51986773	      5.56399751	      0.36216584	      1.14220674	     -0.28280495	      0.00000000	      0.50000000	      0.00000000	      0.25000000	     37.87526602	     -8.56070110	     -1.06626813	     61.25560201	      1.06911194	    -34.16892268	    -16.94365008	      0.00000000	      0.00000000	     67.53715982	      4.03170136	      4.35801184	     83.54892034	      1.45820375	     11.11812635	    -10.57739884	      0.00000000	      0.00000000	    -62.81075202	     -1.73970517	    -10.11756318	     53.38318550	    -14.37522884	     21.03464295	     64.86306982	     48.91681420	      0.00000000	      0.00000000	     48.62765939	    -24.93351939	     23.97691012	     82.54501983	     50.72609824	      0.00000000	      0.00000000
